<?xml version="1.0" encoding="UTF-8" standalone="no"?>
<svg
   viewBox="0 0 636.13354 389.66895"
   version="1.1"
   id="svg296"
   sodipodi:docname="icon-light.svg"
   width="636.13354"
   height="389.66895"
   inkscape:version="1.1.2 (0a00cf5339, 2022-02-04)"
   xmlns:inkscape="http://www.inkscape.org/namespaces/inkscape"
   xmlns:sodipodi="http://sodipodi.sourceforge.net/DTD/sodipodi-0.dtd"
   xmlns="http://www.w3.org/2000/svg"
   xmlns:svg="http://www.w3.org/2000/svg">
  <defs
     id="defs300" />
  <sodipodi:namedview
     id="namedview298"
     pagecolor="#ffffff"
     bordercolor="#666666"
     borderopacity="1.0"
     inkscape:pageshadow="2"
     inkscape:pageopacity="0.0"
     inkscape:pagecheckerboard="0"
     showgrid="false"
     fit-margin-top="0"
     fit-margin-left="0"
     fit-margin-right="0"
     fit-margin-bottom="0"
     inkscape:zoom="1.2507019"
     inkscape:cx="261.85296"
     inkscape:cy="189.49359"
     inkscape:window-width="1920"
     inkscape:window-height="1131"
     inkscape:window-x="0"
     inkscape:window-y="0"
     inkscape:window-maximized="1"
     inkscape:current-layer="svg296" />
  <!--! Font Awesome Pro 6.0.0 by @fontawesome - https://fontawesome.com License - https://fontawesome.com/license (Commercial License) Copyright 2022 Fonticons, Inc. -->
  <path
     id="path294"
     d="M 194.94922 0 C 87.235642 0.049498 0 87.285138 0 194.94922 C 0.067175 302.5037 87.324326 389.75987 194.89648 389.66797 C 196.31069 389.66797 197.99154 389.40481 199.49414 389.31641 C 285.3864 388.09312 406.33585 352.7016 451.85938 338.47461 C 456.45487 337.0611 460.16729 333.70117 462.02344 329.19336 C 463.87677 324.85809 463.61255 319.82078 461.31445 315.57812 C 458.75119 310.71678 455.56628 304.87813 452.11914 298.42578 C 524.95114 263.77755 592.69237 228.2119 628.31641 209.03516 C 632.79239 205.54912 636.78456 200.70736 636.04492 194.14258 C 636.04514 188.13196 632.7701 182.73663 627.4668 179.9082 C 591.97004 160.6749 524.25105 125.12979 451.50391 90.566406 C 454.95105 84.114056 458.22435 78.187033 460.69922 73.414062 C 462.91176 69.256972 463.17843 64.218738 461.32227 59.710938 C 459.55097 55.287978 455.83838 51.929845 451.24219 50.515625 C 406.17827 36.748258 285.31202 1.4841786 199.54492 0.35351562 C 198.04231 0.26512662 196.36344 0 194.94922 0 z M 190.80859 65.539062 C 223.56797 65.527573 256.33962 78.01149 281.35352 103.02539 C 331.2894 152.96127 331.29647 234.10197 281.35352 284.04492 C 230.65397 334.74447 150.25572 335.23945 100.33398 284.04492 C 50.306182 234.01711 50.29911 153.06027 100.33398 103.02539 C 125.30193 78.05745 158.04922 65.550552 190.80859 65.539062 z M 418.67773 107.7793 C 420.90523 107.82512 423.11683 108.71874 424.7832 110.45312 C 446.66226 133.26426 458.70898 163.22258 458.70898 194.83594 C 458.70898 226.4493 446.66226 256.40269 424.7832 279.22852 C 421.68171 282.68367 415.94111 282.79256 412.4707 279.4707 C 410.68518 277.76216 409.79102 275.47444 409.79102 273.1875 C 409.79102 271.01103 410.60773 268.8624 412.21289 267.14844 C 430.96598 247.36967 441.29688 221.93311 441.29688 194.83594 C 441.29688 167.73878 431.20318 141.81065 412.2168 122.50977 C 408.90243 119.03284 408.99378 113.5238 412.4707 110.19922 C 414.20509 108.53659 416.45024 107.73347 418.67773 107.7793 z M 389.63477 140.08594 C 391.88844 140.22537 394.11627 141.21221 395.82617 143.00781 C 408.45791 157.31816 415.42383 175.72373 415.42383 194.83594 C 415.42383 213.96176 408.21341 232.35177 395.58984 246.66211 C 392.40672 250.2805 386.91255 250.60693 383.29688 247.42383 C 381.35056 245.69897 380.35547 243.30064 380.35547 240.89453 C 380.35547 238.85409 381.06212 236.78651 382.53125 235.12695 C 392.35806 224.0269 397.76758 209.69041 397.76758 194.83594 C 397.76758 179.98146 392.35261 165.67022 382.53125 154.54297 C 379.34814 150.95179 379.70178 145.45641 383.29297 142.24609 C 385.10216 140.65455 387.38109 139.94651 389.63477 140.08594 z M 354.47852 177.17773 C 364.09584 177.17773 371.89453 184.97252 371.89453 194.58984 C 371.89453 204.43841 364.09584 212.00195 354.47852 212.00195 C 344.86121 212.00195 337.06445 204.20444 337.06445 194.58984 C 337.06445 184.97524 344.86121 177.17773 354.47852 177.17773 z " />
  <path
     d="m 295.74965,194.4812 c 0,57.72952 -46.78786,104.51738 -104.51738,104.51738 -57.72952,0 -104.517388,-46.78786 -104.517388,-104.51738 0,-57.72953 46.787868,-104.51738 104.517388,-104.51738 57.72952,0 104.51738,46.78785 104.51738,104.51738 z M 195.43746,109.66289 181.6379,120.01256 c -2.16384,1.64533 -3.4703,4.2256 -3.4703,6.96918 v 3.69486 c 0,2.76808 2.24549,5.01357 5.02173,5.01357 0.97985,0 1.9597,-0.28579 2.77624,-0.85737 l 17.06573,-11.36627 c 0.81654,-0.54708 1.79639,-0.84104 2.77624,-0.84104 h 0.40827 c 2.53128,0 4.61347,2.06994 4.61347,4.61755 0,1.22481 -0.48993,2.40063 -1.3473,3.26617 l -8.12459,8.12051 c -2.36797,2.00053 -5.2667,4.16436 -8.41039,5.18504 l -10.86001,3.63361 c -2.32714,0.77572 -3.91939,2.98038 -3.91939,5.47083 0,1.51061 -0.61241,2.98038 -1.67391,4.04189 l -7.34888,7.34888 c -2.57211,2.5721 -4.04189,6.12406 -4.04189,9.7985 v 1.71474 c 0,6.69564 5.55249,12.12565 12.20731,12.12565 4.49097,0 8.65534,-2.53128 10.65587,-6.53234 l 1.63308,-3.30699 c 1.02068,-1.9597 3.02121,-3.22534 5.22587,-3.22534 1.87805,0 3.59279,0.85736 4.69512,2.32714 l 6.65482,8.90031 c 0.85736,1.14316 2.24549,1.83722 3.71526,1.83722 3.42948,0 5.67497,-3.63361 4.12354,-6.69565 l -0.4491,-0.93902 c -1.46977,-2.8579 0,-6.3282 3.02121,-7.34888 l 8.65534,-2.89872 c 3.10286,-1.02068 5.18504,-3.9194 5.18504,-7.18557 0,-4.20519 3.38865,-7.59384 7.59385,-7.59384 h 12.00316 c 3.59279,0 6.53234,2.93955 6.53234,6.53233 0,3.59279 -2.93955,6.53234 -6.53234,6.53234 h -8.45121 c -2.93955,0 -5.79744,1.18398 -7.87963,3.26617 l -1.91887,1.91887 c -0.85737,0.85737 -1.3473,2.04136 -1.3473,3.26617 0,2.53128 2.08219,4.61346 4.61347,4.61346 h 4.61346 c 2.44963,0 4.8176,0.97985 6.53234,2.69459 l 2.69459,2.69459 c 0.36744,0.36744 1.14315,1.71474 1.14315,2.77624 0,1.06151 -0.77571,2.04136 -1.14315,2.77625 l -3.06204,3.06203 c -1.5106,1.14316 -2.32714,3.51113 -2.32714,5.59331 0,2.08218 0.81654,4.08271 2.32714,5.59331 l 7.47136,7.47136 c 4.16437,4.16437 9.83933,6.53234 15.75926,6.53234 h 2.65377 c 3.0212,-8.24707 4.45015,-17.0249 4.45015,-26.12934 0,-45.4814 -35.76454,-82.61773 -80.71518,-84.81831 z m 70.26344,125.68624 c -1.5106,-1.06151 -3.34782,-1.67392 -5.30752,-1.67392 -2.44963,0 -4.8176,-0.97985 -6.53234,-2.69458 l -5.83827,-5.83828 c -2.77625,-2.77624 -7.02227,-4.53181 -11.43159,-4.53181 -3.96023,0 -7.83881,-1.42895 -10.86001,-4.00105 l -11.18663,-9.30858 c -4.3685,-4.04189 -10.41091,-6.65482 -16.65746,-6.65482 h -8.53286 c -5.18504,0 -10.20677,1.87804 -14.49362,4.73594 l -11.18662,7.47136 c -7.26723,4.85843 -11.63573,13.02385 -11.63573,21.76085 v 1.30647 c 0,6.9406 2.73542,13.55459 7.63467,18.45385 l 6.53234,6.53233 c 3.4703,3.47031 8.16542,5.43001 13.06467,5.43001 h 8.69617 c 5.43,0 9.7985,4.3685 9.7985,9.7985 0,1.02068 0.16331,2.04136 0.4491,2.98038 29.15055,-2.36797 54.09591,-19.4337 67.4872,-43.76665 z M 153.95712,131.0767 140.89245,144.14138 c -2.57211,2.53128 -2.57211,6.69564 0,9.22692 2.53128,2.57211 6.69565,2.57211 9.22693,0 l 13.06467,-13.06467 c 2.57211,-2.53128 2.57211,-6.69565 0,-9.22693 -2.53128,-2.55577 -6.69564,-2.55577 -9.22693,0 z"
     id="path2"
     style="stroke-width:0.408271" />
</svg>
