<?xml version="1.0" encoding="UTF-8" standalone="no"?>
<!-- Created with Inkscape (http://www.inkscape.org/) -->

<svg
   width="1440"
   height="512"
   viewBox="0 0 381.00186 135.46666"
   version="1.1"
   id="svg5"
   xml:space="preserve"
   sodipodi:docname="logo-light.svg"
   inkscape:version="1.2.2 (b0a8486541, 2022-12-01)"
   inkscape:export-filename="logo-light.png"
   inkscape:export-xdpi="109.47681"
   inkscape:export-ydpi="109.47681"
   xmlns:inkscape="http://www.inkscape.org/namespaces/inkscape"
   xmlns:sodipodi="http://sodipodi.sourceforge.net/DTD/sodipodi-0.dtd"
   xmlns="http://www.w3.org/2000/svg"
   xmlns:svg="http://www.w3.org/2000/svg"><sodipodi:namedview
     id="namedview7"
     pagecolor="#ffffff"
     bordercolor="#999999"
     borderopacity="1"
     inkscape:showpageshadow="0"
     inkscape:pageopacity="0"
     inkscape:pagecheckerboard="0"
     inkscape:deskcolor="#d1d1d1"
     inkscape:document-units="mm"
     showgrid="true"
     inkscape:zoom="0.7071068"
     inkscape:cx="324.562"
     inkscape:cy="456.79097"
     inkscape:window-width="2560"
     inkscape:window-height="1371"
     inkscape:window-x="0"
     inkscape:window-y="0"
     inkscape:window-maximized="1"
     inkscape:current-layer="layer1"
     inkscape:lockguides="true"><inkscape:grid
       type="xygrid"
       id="grid365"
       spacingx="3.96875"
       spacingy="3.96875"
       originx="-35.721217"
       originy="-79.374241" /></sodipodi:namedview><defs
     id="defs2" /><g
     inkscape:label="Layer 1"
     inkscape:groupmode="layer"
     id="layer1"
     transform="translate(-35.718758,-79.375)"><text
       xml:space="preserve"
       style="font-size:78.5714px;font-family:Overpass;-inkscape-font-specification:Overpass;fill:#ffffff;stroke-width:0.026536;-inkscape-stroke:none;stop-color:#000000"
       x="183.35872"
       y="167.5369"
       id="text452"><tspan
         sodipodi:role="line"
         id="tspan450"
         style="fill:#1a1a1a;stroke-width:0.026536"
         x="183.35872"
         y="167.5369">weron</tspan></text><g
       id="g666"
       transform="matrix(0.26458463,0,0,0.26458463,35.718566,79.37468)"><circle
         style="fill:#ffffff;stroke-width:0.398191;stop-color:#000000"
         id="path356"
         cx="256"
         cy="256"
         r="256" /><g
         id="g290"
         transform="matrix(0.59858101,0,0,0.59858101,77.611202,139.37606)"><path
           id="path294"
           d="M 194.94922,0 C 87.235642,0.049498 0,87.285138 0,194.94922 0.067175,302.5037 87.324326,389.75987 194.89648,389.66797 c 1.41421,0 3.09506,-0.26316 4.59766,-0.35156 85.89226,-1.22329 206.84171,-36.61481 252.36524,-50.8418 4.59549,-1.41351 8.30791,-4.77344 10.16406,-9.28125 1.85333,-4.33527 1.58911,-9.37258 -0.70899,-13.61524 -2.56326,-4.86134 -5.74817,-10.69999 -9.19531,-17.15234 72.832,-34.64823 140.57323,-70.21388 176.19727,-89.39062 4.47598,-3.48604 8.46815,-8.3278 7.72851,-14.89258 2.2e-4,-6.01062 -3.27482,-11.40595 -8.57812,-14.23438 -35.49676,-19.2333 -103.21575,-54.77841 -175.96289,-89.341794 3.44714,-6.45235 6.72044,-12.379373 9.19531,-17.152344 2.21254,-4.15709 2.47921,-9.195324 0.62305,-13.703124 -1.7713,-4.42296 -5.48389,-7.781093 -10.08008,-9.195313 C 406.17827,36.748258 285.31202,1.4841786 199.54492,0.35351562 198.04231,0.26512662 196.36344,0 194.94922,0 Z m -4.14063,65.539062 c 32.75938,-0.01149 65.53103,12.472428 90.54493,37.486328 49.93588,49.93588 49.94295,131.07658 0,181.01953 -50.69955,50.69955 -131.0978,51.19453 -181.01954,0 -50.027798,-50.02781 -50.03487,-130.98465 0,-181.01953 24.96795,-24.96794 57.71524,-37.474838 90.47461,-37.486328 z M 418.67773,107.7793 c 2.2275,0.0458 4.4391,0.93944 6.10547,2.67382 21.87906,22.81114 33.92578,52.76946 33.92578,84.38282 0,31.61336 -12.04672,61.56675 -33.92578,84.39258 -3.10149,3.45515 -8.84209,3.56404 -12.3125,0.24218 -1.78552,-1.70854 -2.67968,-3.99626 -2.67968,-6.2832 0,-2.17647 0.81671,-4.3251 2.42187,-6.03906 18.75309,-19.77877 29.08399,-45.21533 29.08399,-72.3125 0,-27.09716 -10.0937,-53.02529 -29.08008,-72.32617 -3.31437,-3.47693 -3.22302,-8.98597 0.2539,-12.31055 1.73439,-1.66263 3.97954,-2.46575 6.20703,-2.41992 z m -29.04296,32.30664 c 2.25367,0.13943 4.4815,1.12627 6.1914,2.92187 12.63174,14.31035 19.59766,32.71592 19.59766,51.82813 0,19.12582 -7.21042,37.51583 -19.83399,51.82617 -3.18312,3.61839 -8.67729,3.94482 -12.29296,0.76172 -1.94632,-1.72486 -2.94141,-4.12319 -2.94141,-6.5293 0,-2.04044 0.70665,-4.10802 2.17578,-5.76758 9.82681,-11.10005 15.23633,-25.43654 15.23633,-40.29101 0,-14.85448 -5.41497,-29.16572 -15.23633,-40.29297 -3.18311,-3.59118 -2.82947,-9.08656 0.76172,-12.29688 1.80919,-1.59154 4.08812,-2.29958 6.3418,-2.16015 z m -35.15625,37.09179 c 9.61732,0 17.41601,7.79479 17.41601,17.41211 0,9.84857 -7.79869,17.41211 -17.41601,17.41211 -9.61731,0 -17.41407,-7.79751 -17.41407,-17.41211 0,-9.6146 7.79676,-17.41211 17.41407,-17.41211 z" /><path
           d="m 295.74965,194.4812 c 0,57.72952 -46.78786,104.51738 -104.51738,104.51738 -57.72952,0 -104.517388,-46.78786 -104.517388,-104.51738 0,-57.72953 46.787868,-104.51738 104.517388,-104.51738 57.72952,0 104.51738,46.78785 104.51738,104.51738 z M 195.43746,109.66289 181.6379,120.01256 c -2.16384,1.64533 -3.4703,4.2256 -3.4703,6.96918 v 3.69486 c 0,2.76808 2.24549,5.01357 5.02173,5.01357 0.97985,0 1.9597,-0.28579 2.77624,-0.85737 l 17.06573,-11.36627 c 0.81654,-0.54708 1.79639,-0.84104 2.77624,-0.84104 h 0.40827 c 2.53128,0 4.61347,2.06994 4.61347,4.61755 0,1.22481 -0.48993,2.40063 -1.3473,3.26617 l -8.12459,8.12051 c -2.36797,2.00053 -5.2667,4.16436 -8.41039,5.18504 l -10.86001,3.63361 c -2.32714,0.77572 -3.91939,2.98038 -3.91939,5.47083 0,1.51061 -0.61241,2.98038 -1.67391,4.04189 l -7.34888,7.34888 c -2.57211,2.5721 -4.04189,6.12406 -4.04189,9.7985 v 1.71474 c 0,6.69564 5.55249,12.12565 12.20731,12.12565 4.49097,0 8.65534,-2.53128 10.65587,-6.53234 l 1.63308,-3.30699 c 1.02068,-1.9597 3.02121,-3.22534 5.22587,-3.22534 1.87805,0 3.59279,0.85736 4.69512,2.32714 l 6.65482,8.90031 c 0.85736,1.14316 2.24549,1.83722 3.71526,1.83722 3.42948,0 5.67497,-3.63361 4.12354,-6.69565 l -0.4491,-0.93902 c -1.46977,-2.8579 0,-6.3282 3.02121,-7.34888 l 8.65534,-2.89872 c 3.10286,-1.02068 5.18504,-3.9194 5.18504,-7.18557 0,-4.20519 3.38865,-7.59384 7.59385,-7.59384 h 12.00316 c 3.59279,0 6.53234,2.93955 6.53234,6.53233 0,3.59279 -2.93955,6.53234 -6.53234,6.53234 h -8.45121 c -2.93955,0 -5.79744,1.18398 -7.87963,3.26617 l -1.91887,1.91887 c -0.85737,0.85737 -1.3473,2.04136 -1.3473,3.26617 0,2.53128 2.08219,4.61346 4.61347,4.61346 h 4.61346 c 2.44963,0 4.8176,0.97985 6.53234,2.69459 l 2.69459,2.69459 c 0.36744,0.36744 1.14315,1.71474 1.14315,2.77624 0,1.06151 -0.77571,2.04136 -1.14315,2.77625 l -3.06204,3.06203 c -1.5106,1.14316 -2.32714,3.51113 -2.32714,5.59331 0,2.08218 0.81654,4.08271 2.32714,5.59331 l 7.47136,7.47136 c 4.16437,4.16437 9.83933,6.53234 15.75926,6.53234 h 2.65377 c 3.0212,-8.24707 4.45015,-17.0249 4.45015,-26.12934 0,-45.4814 -35.76454,-82.61773 -80.71518,-84.81831 z m 70.26344,125.68624 c -1.5106,-1.06151 -3.34782,-1.67392 -5.30752,-1.67392 -2.44963,0 -4.8176,-0.97985 -6.53234,-2.69458 l -5.83827,-5.83828 c -2.77625,-2.77624 -7.02227,-4.53181 -11.43159,-4.53181 -3.96023,0 -7.83881,-1.42895 -10.86001,-4.00105 l -11.18663,-9.30858 c -4.3685,-4.04189 -10.41091,-6.65482 -16.65746,-6.65482 h -8.53286 c -5.18504,0 -10.20677,1.87804 -14.49362,4.73594 l -11.18662,7.47136 c -7.26723,4.85843 -11.63573,13.02385 -11.63573,21.76085 v 1.30647 c 0,6.9406 2.73542,13.55459 7.63467,18.45385 l 6.53234,6.53233 c 3.4703,3.47031 8.16542,5.43001 13.06467,5.43001 h 8.69617 c 5.43,0 9.7985,4.3685 9.7985,9.7985 0,1.02068 0.16331,2.04136 0.4491,2.98038 29.15055,-2.36797 54.09591,-19.4337 67.4872,-43.76665 z M 153.95712,131.0767 140.89245,144.14138 c -2.57211,2.53128 -2.57211,6.69564 0,9.22692 2.53128,2.57211 6.69565,2.57211 9.22693,0 l 13.06467,-13.06467 c 2.57211,-2.53128 2.57211,-6.69565 0,-9.22693 -2.53128,-2.55577 -6.69564,-2.55577 -9.22693,0 z"
           id="path2"
           style="stroke-width:0.408271" /></g></g></g></svg>
